<svg xmlns="http://www.w3.org/2000/svg" width="20.03" height="20" viewBox="0 0 20.03 20">
  <defs>
    <style>
      .cls-1 {
        fill: #fff;
        fill-rule: evenodd;
      }
    </style>
  </defs>
  <path id="Forma_1" data-name="Forma 1" class="cls-1" d="M1207.48,84.678l-2.8-2.791a1.865,1.865,0,0,0-3.1.7,1.906,1.906,0,0,1-2.2,1.2,8.631,8.631,0,0,1-5.19-5.184,1.806,1.806,0,0,1,1.2-2.193,1.854,1.854,0,0,0,.7-3.09l-2.8-2.792a2,2,0,0,0-2.7,0l-1.89,1.894c-1.9,1.994.2,7.277,4.89,11.962s9.99,6.878,11.99,4.885l1.9-1.894A2.007,2.007,0,0,0,1207.48,84.678Z" transform="translate(-1188 -70)"/>
</svg>
